<svg width="432" height="431" viewBox="0 0 432 431" fill="none" xmlns="http://www.w3.org/2000/svg">
<path d="M319.604 247.656C318.766 247.255 287.349 231.781 281.771 229.771C279.49 228.953 277.052 228.156 274.453 228.156C270.214 228.156 266.646 230.271 263.87 234.422C260.735 239.089 251.235 250.193 248.302 253.51C247.917 253.953 247.391 254.474 247.078 254.474C246.797 254.474 241.938 252.474 240.464 251.828C206.766 237.193 181.188 201.979 177.682 196.042C177.177 195.188 177.156 194.802 177.156 194.802C177.276 194.349 178.412 193.214 178.995 192.63C180.703 190.932 182.557 188.703 184.354 186.542C185.203 185.521 186.052 184.495 186.891 183.531C189.49 180.5 190.651 178.151 191.99 175.427L192.693 174.016C195.974 167.495 193.177 162 192.266 160.224C191.526 158.734 178.261 126.714 176.854 123.349C173.458 115.234 168.979 111.453 162.75 111.453C162.172 111.453 162.75 111.453 160.328 111.557C157.375 111.682 141.313 113.797 134.203 118.276C126.672 123.026 113.927 138.172 113.927 164.802C113.927 188.771 129.136 211.406 135.662 220.01C135.828 220.229 136.12 220.667 136.557 221.302C161.563 257.828 192.735 284.896 224.333 297.526C254.755 309.677 269.162 311.083 277.354 311.083C280.797 311.083 283.547 310.813 285.979 310.573L287.521 310.427C298.031 309.495 321.125 297.526 326.38 282.922C330.521 271.422 331.61 258.854 328.854 254.292C326.969 251.193 323.719 249.635 319.604 247.656Z" fill="#3f3f40"/>
<mask id="mask0_111_133" style="mask-type:luminance" maskUnits="userSpaceOnUse" x="0" y="0" width="432" height="431">
<path d="M0 0H432V431H0V0Z" fill="white"/>
</mask>
<g mask="url(#mask0_111_133)">
<path d="M220.031 376.417C187.104 376.417 155.209 366.901 127.787 348.906C126.865 348.302 125.797 347.995 124.719 347.995C124.151 347.995 123.578 348.078 123.021 348.255L67.0106 366.063L85.0939 312.708C85.6773 310.979 85.3856 309.078 84.3075 307.604C63.4273 279.068 52.3908 245.354 52.3908 210.104C52.3908 118.38 127.599 43.7656 220.031 43.7656C312.459 43.7656 387.656 118.38 387.656 210.104C387.656 301.807 312.464 376.417 220.031 376.417ZM220.031 0C103.333 0 8.38558 94.25 8.38558 210.104C8.38558 247.573 18.4116 284.25 37.4012 316.349L1.05225 423.604C0.375169 425.604 0.880376 427.818 2.35954 429.323C3.42725 430.411 4.87517 431 6.35433 431C6.92204 431 7.48975 430.911 8.04704 430.734L119.86 395.198C150.459 411.547 185.037 420.182 220.037 420.182C336.729 420.182 431.662 325.938 431.662 210.104C431.662 94.25 336.729 0 220.031 0Z" fill="#3f3f40"/>
</g>
</svg>
